<svg width="20" height="20" viewBox="0 0 20 20" fill="none" xmlns="http://www.w3.org/2000/svg">
<g clip-path="url(#clip0_0_149)">
<path d="M19 10C19 14.9706 14.9706 19 10 19C5.02944 19 1 14.9706 1 10C1 5.02944 5.02944 1 10 1C14.9706 1 19 5.02944 19 10Z" fill="#F1B301" stroke="#800A7A" stroke-width="2"/>
<path d="M10.2564 14.0994C11.8118 14.0994 12.9446 13.2081 12.9411 11.9794C12.9446 11.0703 12.3764 10.4169 11.3572 10.2713V10.2145C12.1456 10.044 12.6747 9.4581 12.6712 8.64134C12.6747 7.53338 11.7301 6.62784 10.2777 6.62784C8.86435 6.62784 7.7706 7.46946 7.74219 8.6875H9.00994C9.03125 8.0767 9.59943 7.69673 10.2706 7.69673C10.9489 7.69673 11.3999 8.10866 11.3963 8.71946C11.3999 9.35511 10.8743 9.7777 10.1214 9.7777H9.47869V10.7933H10.1214C11.0412 10.7933 11.5881 11.255 11.5845 11.9119C11.5881 12.5547 11.0305 12.995 10.2528 12.995C9.52131 12.995 8.95668 12.6151 8.92472 12.022H7.58949C7.625 13.2507 8.7223 14.0994 10.2564 14.0994Z" fill="white"/>
</g>
<defs>
<clipPath id="clip0_0_149">
<rect width="20" height="20" fill="white"/>
</clipPath>
</defs>
</svg>
